<region>
sample=$SAMPLE_DIR/black_cortex_hihat_op_2_bow_a_01.wav
hivel=11
seq_length=2

<region>
sample=$SAMPLE_DIR/black_cortex_hihat_op_2_bow_b_01.wav
hivel=11
seq_length=2
seq_position=2

<region>
sample=$SAMPLE_DIR/black_cortex_hihat_op_2_bow_a_02.wav
lovel=12
hivel=23
seq_length=2

<region>
sample=$SAMPLE_DIR/black_cortex_hihat_op_2_bow_b_02.wav
lovel=12
hivel=23
seq_length=2
seq_position=2

<region>
sample=$SAMPLE_DIR/black_cortex_hihat_op_2_bow_a_03.wav
lovel=24
hivel=34
seq_length=2

<region>
sample=$SAMPLE_DIR/black_cortex_hihat_op_2_bow_b_03.wav
lovel=24
hivel=34
seq_length=2
seq_position=2

<region>
sample=$SAMPLE_DIR/black_cortex_hihat_op_2_bow_a_04.wav
lovel=35
hivel=46
seq_length=2

<region>
sample=$SAMPLE_DIR/black_cortex_hihat_op_2_bow_b_04.wav
lovel=35
hivel=46
seq_length=2
seq_position=2

<region>
sample=$SAMPLE_DIR/black_cortex_hihat_op_2_bow_a_05.wav
lovel=47
hivel=57
seq_length=2

<region>
sample=$SAMPLE_DIR/black_cortex_hihat_op_2_bow_b_05.wav
lovel=47
hivel=57
seq_length=2
seq_position=2

<region>
sample=$SAMPLE_DIR/black_cortex_hihat_op_2_bow_a_06.wav
lovel=58
hivel=69
seq_length=2

<region>
sample=$SAMPLE_DIR/black_cortex_hihat_op_2_bow_b_06.wav
lovel=58
hivel=69
seq_length=2
seq_position=2

<region>
sample=$SAMPLE_DIR/black_cortex_hihat_op_2_bow_a_07.wav
lovel=70
hivel=80
seq_length=2

<region>
sample=$SAMPLE_DIR/black_cortex_hihat_op_2_bow_b_07.wav
lovel=70
hivel=80
seq_length=2
seq_position=2

<region>
sample=$SAMPLE_DIR/black_cortex_hihat_op_2_bow_a_08.wav
lovel=81
hivel=92
seq_length=2

<region>
sample=$SAMPLE_DIR/black_cortex_hihat_op_2_bow_b_08.wav
lovel=81
hivel=92
seq_length=2
seq_position=2

<region>
sample=$SAMPLE_DIR/black_cortex_hihat_op_2_bow_a_09.wav
lovel=93
hivel=103
seq_length=2

<region>
sample=$SAMPLE_DIR/black_cortex_hihat_op_2_bow_b_09.wav
lovel=93
hivel=103
seq_length=2
seq_position=2

<region>
sample=$SAMPLE_DIR/black_cortex_hihat_op_2_bow_a_10.wav
lovel=104
hivel=115
seq_length=2

<region>
sample=$SAMPLE_DIR/black_cortex_hihat_op_2_bow_b_10.wav
lovel=104
hivel=115
seq_length=2
seq_position=2

<region>
sample=$SAMPLE_DIR/black_cortex_hihat_op_2_bow_a_11.wav
lovel=116
seq_length=2

<region>
sample=$SAMPLE_DIR/black_cortex_hihat_op_2_bow_b_11.wav
lovel=116
seq_length=2
seq_position=2

